<?xml version="1.0" encoding="utf-8"?>
<!-- Generator: Adobe Illustrator 23.0.5, SVG Export Plug-In . SVG Version: 6.00 Build 0)  -->
<svg version="1.1" id="Layer_1" xmlns="http://www.w3.org/2000/svg" xmlns:xlink="http://www.w3.org/1999/xlink" x="0px" y="0px"
	 viewBox="0 0 500 500" style="enable-background:new 0 0 500 500;" xml:space="preserve">
<style type="text/css">
	.st0{fill:url(#SVGID_1_);}
	.st1{fill:url(#SVGID_2_);}
	.st2{fill:url(#SVGID_3_);}
	.st3{fill:#326EA2;}
	.st4{opacity:0.38;fill:url(#SVGID_4_);}
	.st5{opacity:0.38;fill:url(#SVGID_5_);}
</style>
<g>
	<linearGradient id="SVGID_1_" gradientUnits="userSpaceOnUse" x1="254.8977" y1="410.6703" x2="254.8977" y2="83.7112">
		<stop  offset="0" style="stop-color:#BA4BA2"/>
		<stop  offset="1" style="stop-color:#3485FA"/>
	</linearGradient>
	<path class="st0" d="M195.5,388.7l28.7-285.8c0,0,49.4-42.8,90.1-0.4l-28.7,285.4C285.6,387.9,225.7,438.6,195.5,388.7z"/>
	
		<linearGradient id="SVGID_2_" gradientUnits="userSpaceOnUse" x1="237.0039" y1="391.5018" x2="263.5886" y2="208.6351" gradientTransform="matrix(1 -7.595180e-04 7.595180e-04 1 -0.351 1.4485)">
		<stop  offset="0" style="stop-color:#FFFFFF;stop-opacity:0"/>
		<stop  offset="9.212494e-02" style="stop-color:#D5D5D5;stop-opacity:9.212494e-02"/>
		<stop  offset="0.2283" style="stop-color:#9D9D9D;stop-opacity:0.2283"/>
		<stop  offset="0.3653" style="stop-color:#6D6D6D;stop-opacity:0.3653"/>
		<stop  offset="0.5003" style="stop-color:#464646;stop-opacity:0.5003"/>
		<stop  offset="0.6326" style="stop-color:#272727;stop-opacity:0.6326"/>
		<stop  offset="0.7616" style="stop-color:#121212;stop-opacity:0.7616"/>
		<stop  offset="0.8859" style="stop-color:#040404;stop-opacity:0.8859"/>
		<stop  offset="1" style="stop-color:#000000"/>
	</linearGradient>
	<polygon class="st1" points="294.6,302 290.2,340.2 201.5,327.9 204.4,302.1 	"/>
	<linearGradient id="SVGID_3_" gradientUnits="userSpaceOnUse" x1="249.2887" y1="496.1752" x2="249.2887" y2="3.7972">
		<stop  offset="0" style="stop-color:#BB4AA2"/>
		<stop  offset="1" style="stop-color:#3585FA"/>
	</linearGradient>
	<path class="st2" d="M437.9,344.9c-0.1,63.5-22.8,107.1-68,130.6c-5.5,2.9-11.3,5.4-17.4,7.7c-23,8.5-50.7,12.8-83,13l-154.6-0.4
		c-36.3,0.4-54.8-17-55.4-52c0.6-39.4,18.9-59.3,54.8-59.7l153.2-0.1c16.3,0,29.2-2.4,38.6-7.1c0.2-0.1,0.3-0.2,0.5-0.2
		c12.4-6.4,18.8-16.9,19.1-31.7c0-25.7-19-38.6-56.8-38.9l-37.1,0C117.6,306.8,60.5,256,60.4,153.5c-0.2-41.1,9.3-73.7,28.5-97.8
		c5.1-6.4,10.9-12.3,17.4-17.5c3.8-3.1,7.9-6,12.2-8.6c0,0,0.1-0.1,0.1-0.1c4.5-2.8,9.2-5.3,14.2-7.6c6.6-3.1,13.6-5.7,21.1-8
		c21.6-6.6,46.8-9.9,75.9-9.9l152.5-0.1c38,0,57,18.8,57.1,56.5c-0.3,37.4-18.8,56.6-55.6,57.5L231.4,118c-16.2,0-29,2.2-38.5,6.7
		c-0.7,0.3-1.3,0.6-2,1c-0.1,0.1-0.3,0.1-0.4,0.2c-2.2,1.2-4.3,2.6-6.1,4.1c0,0,0,0-0.1,0.1c-1,0.8-1.9,1.7-2.8,2.6
		c-0.6,0.6-1.2,1.2-1.7,1.9c-4.8,5.9-7.2,13.4-7.1,22.5c0,24.7,19.8,37,59.2,37l37.2,0C382.2,195.8,438.4,246.1,437.9,344.9z"/>
	<path class="st3" d="M440.6,61.3c-0.4-37.4-19-56.6-56-57.5l-11.4,0c37,0.9,55.7,20.1,56,57.5c0,37.7-19.1,56.6-57.4,56.6l11.4,0
		C421.5,117.8,440.6,98.9,440.6,61.3z"/>
	
		<radialGradient id="SVGID_4_" cx="20.1372" cy="91.2685" r="50.6365" gradientTransform="matrix(1 -7.595180e-04 1.097853e-03 1.4455 -0.3818 -39.2079)" gradientUnits="userSpaceOnUse">
		<stop  offset="0" style="stop-color:#000000"/>
		<stop  offset="5.438086e-02" style="stop-color:#050505;stop-opacity:0.8964"/>
		<stop  offset="0.1193" style="stop-color:#141414;stop-opacity:0.7728"/>
		<stop  offset="0.1897" style="stop-color:#2C2C2C;stop-opacity:0.6389"/>
		<stop  offset="0.2638" style="stop-color:#4D4D4D;stop-opacity:0.4976"/>
		<stop  offset="0.3411" style="stop-color:#797979;stop-opacity:0.3505"/>
		<stop  offset="0.4208" style="stop-color:#AEAEAE;stop-opacity:0.1986"/>
		<stop  offset="0.5012" style="stop-color:#EBEBEB;stop-opacity:4.563868e-02"/>
		<stop  offset="0.5251" style="stop-color:#FFFFFF;stop-opacity:0"/>
		<stop  offset="0.5753" style="stop-color:#CECECE;stop-opacity:0.1057"/>
		<stop  offset="0.6374" style="stop-color:#989898;stop-opacity:0.2364"/>
		<stop  offset="0.7002" style="stop-color:#696969;stop-opacity:0.3686"/>
		<stop  offset="0.7624" style="stop-color:#434343;stop-opacity:0.4996"/>
		<stop  offset="0.8238" style="stop-color:#262626;stop-opacity:0.629"/>
		<stop  offset="0.8844" style="stop-color:#111111;stop-opacity:0.7566"/>
		<stop  offset="0.9436" style="stop-color:#040404;stop-opacity:0.8812"/>
		<stop  offset="1" style="stop-color:#000000"/>
	</radialGradient>
	<path class="st4" d="M194.9,124.7l-4.4,1.2l-6.7,1.8c-37,9.9-60.5-4.1-70.6-41.9c-7.7-29.8-1.2-51.1,19.5-63.9
		c6.6-3.1,13.6-5.7,21.1-8c-28.5,11.8-38.4,34.8-29.5,69c9.8,36.5,32,50.8,66.7,42.9C192.2,125.4,193.5,125.1,194.9,124.7z"/>
	
		<radialGradient id="SVGID_5_" cx="268.7385" cy="445.8441" r="48.8576" fx="219.9123" fy="447.5955" gradientTransform="matrix(0.9992 -3.923311e-02 5.329907e-02 1.3575 -23.5686 -147.5911)" gradientUnits="userSpaceOnUse">
		<stop  offset="0" style="stop-color:#000000"/>
		<stop  offset="5.438086e-02" style="stop-color:#050505;stop-opacity:0.8964"/>
		<stop  offset="0.1193" style="stop-color:#141414;stop-opacity:0.7728"/>
		<stop  offset="0.1897" style="stop-color:#2C2C2C;stop-opacity:0.6389"/>
		<stop  offset="0.2638" style="stop-color:#4D4D4D;stop-opacity:0.4976"/>
		<stop  offset="0.3411" style="stop-color:#797979;stop-opacity:0.3505"/>
		<stop  offset="0.4208" style="stop-color:#AEAEAE;stop-opacity:0.1986"/>
		<stop  offset="0.5012" style="stop-color:#EBEBEB;stop-opacity:4.563868e-02"/>
		<stop  offset="0.5251" style="stop-color:#FFFFFF;stop-opacity:0"/>
		<stop  offset="0.5753" style="stop-color:#CECECE;stop-opacity:0.1057"/>
		<stop  offset="0.6374" style="stop-color:#989898;stop-opacity:0.2364"/>
		<stop  offset="0.7002" style="stop-color:#696969;stop-opacity:0.3686"/>
		<stop  offset="0.7624" style="stop-color:#434343;stop-opacity:0.4996"/>
		<stop  offset="0.8238" style="stop-color:#262626;stop-opacity:0.629"/>
		<stop  offset="0.8844" style="stop-color:#111111;stop-opacity:0.7566"/>
		<stop  offset="0.9436" style="stop-color:#040404;stop-opacity:0.8812"/>
		<stop  offset="1" style="stop-color:#000000"/>
	</radialGradient>
	<path class="st5" d="M369.9,475.5c-5.5,2.9-11.3,5.4-17.4,7.7c18.3-12.4,24.3-32.7,18-61c-8.5-36.4-29.9-51.5-64.3-45.2
		c-1.6,0.3-3.3,0.6-5,1l5.5-1.3l5.7-1.3c37.2-8.7,60.4,6,69.3,44.2C387,444.3,383.1,462.9,369.9,475.5z"/>
</g>
</svg>
